<?xml version="1.0" encoding="UTF-8"?>
<svg id="Layer_2" xmlns="http://www.w3.org/2000/svg" fill="currentColor" viewBox="0 0 75.6 75.64">
  <g id="Layer_1-2">
    <path id="Path_11" fill="currentColor"
      d="M75.6,21.81c-.29.88-.98,1.57-1.87,1.83-2.7,1-5.37,2.07-8.06,3.09-.52.18-.93.59-1.11,1.12-1.06,2.77-2.12,5.52-3.18,8.28-.42,1.27-1.79,1.96-3.06,1.54-.35-.12-.67-.31-.94-.57-.29-.29-.5-.65-.64-1.04-1.06-2.75-2.12-5.49-3.16-8.24-.18-.52-.59-.94-1.12-1.11-2.77-1.06-5.52-2.12-8.28-3.18-1.27-.41-1.97-1.77-1.56-3.04.24-.74.82-1.32,1.56-1.56,2.76-1.06,5.52-2.14,8.28-3.18.53-.18.94-.59,1.12-1.11,1.05-2.78,2.12-5.56,3.21-8.33.44-1.26,1.82-1.93,3.08-1.49.72.25,1.28.83,1.51,1.56,1.02,2.69,2.09,5.37,3.09,8.07.22.66.75,1.18,1.41,1.39,2.65.99,5.3,2.03,7.93,3.04.86.27,1.53.94,1.79,1.8v1.12Z" />
    <path id="Path_12" fill="currentColor"
      d="M13.54,0c.84.27,1.49.95,1.72,1.8.71,1.93,1.48,3.85,2.2,5.78.15.45.5.81.95.96,2.05.77,4.09,1.54,6.12,2.35,1.16.39,1.78,1.65,1.39,2.81-.13.38-.36.72-.66.98-.26.21-.55.37-.86.47-1.98.76-3.96,1.53-5.95,2.28-.48.16-.86.54-1.01,1.02-.75,2-1.52,4-2.3,6.01-.36,1.17-1.61,1.83-2.79,1.47-.69-.21-1.23-.75-1.46-1.43-.74-1.9-1.5-3.81-2.19-5.73-.21-.7-.75-1.24-1.45-1.46-1.89-.7-3.76-1.44-5.64-2.17-1.19-.34-1.88-1.59-1.54-2.78.21-.74.79-1.32,1.54-1.54,2-.77,3.99-1.54,6.01-2.29.45-.15.8-.51.95-.96.71-1.92,1.48-3.81,2.18-5.74.24-.86.89-1.55,1.74-1.83h1.04Z" />
    <path id="Path_13" fill="currentColor"
      d="M30.74,18.86c1.58-.02,3,.98,3.51,2.47,1.34,3.45,2.66,6.9,3.98,10.35.59,1.54,1.2,3.08,1.77,4.63.26.77.87,1.37,1.64,1.64,4.83,1.85,9.66,3.72,14.49,5.57.97.3,1.82.92,2.39,1.77,1.1,1.71.61,4-1.11,5.1-.23.15-.47.27-.73.36-1.56.63-3.14,1.22-4.71,1.82-3.41,1.31-6.81,2.63-10.22,3.92-.87.32-1.54,1.01-1.83,1.89-1.83,4.79-3.66,9.58-5.51,14.37-.19.58-.48,1.13-.87,1.61-1.35,1.55-3.71,1.72-5.26.36-.46-.4-.82-.92-1.04-1.49-.71-1.77-1.39-3.58-2.08-5.37-1.21-3.14-2.43-6.28-3.61-9.43-.32-.95-1.07-1.69-2.02-2.01-4.9-1.85-9.78-3.75-14.67-5.63-1.95-.68-2.98-2.82-2.3-4.77.37-1.05,1.17-1.88,2.21-2.27,1.52-.61,3.05-1.18,4.59-1.77,3.42-1.31,6.84-2.65,10.27-3.93.92-.32,1.63-1.04,1.93-1.96,1.87-4.93,3.77-9.85,5.65-14.76.53-1.49,1.95-2.48,3.53-2.44" />
  </g>
</svg>