<?xml version="1.0" encoding="UTF-8"?><svg id="Layer_1" xmlns="http://www.w3.org/2000/svg" viewBox="0 0 715.74 523.22"><g id="sportz" isolation="isolate"><g isolation="isolate"><path d="M43.52,348.86c6.54,0,11.16-.64,13.87-1.91,2.71-1.27,4.07-3.74,4.07-7.41,0-2.87-1.76-5.38-5.26-7.53-3.51-2.15-8.85-4.58-16.02-7.29-5.58-2.07-10.64-4.22-15.19-6.46-4.54-2.23-8.41-4.9-11.6-8.01-3.19-3.11-5.66-6.82-7.41-11.12-1.76-4.3-2.63-9.48-2.63-15.54,0-11.8,4.38-21.12,13.15-27.98,8.77-6.85,20.81-10.28,36.11-10.28,7.65,0,14.98.68,22,2.03,7.01,1.36,12.59,2.83,16.74,4.42l-6.22,27.74c-4.15-1.44-8.65-2.71-13.51-3.83-4.87-1.11-10.32-1.67-16.38-1.67-11.16,0-16.74,3.11-16.74,9.33,0,1.43.24,2.71.72,3.83.48,1.12,1.44,2.19,2.87,3.23,1.44,1.04,3.39,2.16,5.86,3.36,2.47,1.21,5.62,2.53,9.45,3.98,7.81,2.9,14.27,5.75,19.37,8.56,5.1,2.81,9.12,5.85,12.08,9.11,2.95,3.26,5.02,6.88,6.22,10.86s1.79,8.59,1.79,13.84c0,12.41-4.66,21.8-13.99,28.16-9.33,6.36-22.52,9.54-39.58,9.54-11.16,0-20.45-.96-27.86-2.87-7.41-1.91-12.55-3.5-15.42-4.78l5.98-28.94c6.06,2.39,12.27,4.27,18.65,5.62,6.37,1.36,12.67,2.03,18.89,2.03Z"/><path d="M240.33,311.55c0,9.73-1.2,18.57-3.59,26.54-2.39,7.97-5.9,14.83-10.52,20.57-4.63,5.74-10.37,10.2-17.22,13.39-6.86,3.19-14.75,4.78-23.67,4.78-4.94,0-9.57-.48-13.87-1.43-4.3-.96-8.45-2.31-12.44-4.07v47.35h-35.63v-165.72c3.19-.96,6.85-1.87,11-2.75,4.14-.88,8.49-1.63,13.03-2.27,4.54-.63,9.17-1.15,13.87-1.55,4.7-.4,9.21-.6,13.51-.6,10.36,0,19.61,1.55,27.74,4.66,8.13,3.11,14.98,7.5,20.57,13.15,5.58,5.66,9.84,12.55,12.79,20.69,2.95,8.13,4.42,17.22,4.42,27.26ZM203.98,312.51c0-11-2.47-19.81-7.41-26.42-4.94-6.61-12.28-9.92-22-9.92-3.19,0-6.14.12-8.85.36-2.71.24-4.94.52-6.7.84v64.33c2.23,1.44,5.14,2.63,8.73,3.59,3.59.96,7.21,1.43,10.88,1.43,16.9,0,25.35-11.4,25.35-34.2Z"/><path d="M385.49,311.31c0,9.89-1.43,18.93-4.3,27.14-2.87,8.21-7.02,15.23-12.44,21.04-5.42,5.82-11.92,10.32-19.49,13.51-7.57,3.19-16.06,4.78-25.47,4.78s-17.66-1.59-25.23-4.78c-7.57-3.19-14.07-7.69-19.49-13.51-5.42-5.82-9.65-12.83-12.67-21.04-3.03-8.21-4.54-17.26-4.54-27.14s1.55-18.89,4.66-27.02c3.11-8.13,7.41-15.07,12.91-20.8,5.5-5.74,12.04-10.2,19.61-13.39,7.57-3.19,15.82-4.78,24.75-4.78s17.42,1.6,24.99,4.78c7.57,3.19,14.07,7.65,19.49,13.39,5.42,5.74,9.64,12.67,12.67,20.8,3.03,8.13,4.54,17.14,4.54,27.02ZM349.14,311.31c0-11-2.19-19.65-6.58-25.95-4.39-6.3-10.64-9.45-18.77-9.45s-14.43,3.15-18.89,9.45c-4.47,6.3-6.7,14.95-6.7,25.95s2.23,19.73,6.7,26.19c4.46,6.46,10.76,9.69,18.89,9.69s14.39-3.23,18.77-9.69c4.38-6.46,6.58-15.19,6.58-26.19Z"/><path d="M488.8,280.22c-3.19-.8-6.94-1.63-11.24-2.51-4.3-.87-8.93-1.32-13.87-1.32-2.23,0-4.9.2-8.01.6-3.11.4-5.46.84-7.05,1.32v96.13h-35.63v-119.09c6.37-2.23,13.91-4.34,22.6-6.34,8.69-1.99,18.37-2.99,29.06-2.99,1.91,0,4.22.12,6.94.36,2.71.24,5.42.56,8.13.96,2.71.4,5.42.88,8.13,1.44,2.71.56,5.02,1.24,6.94,2.03l-5.98,29.41Z"/><path d="M512.71,217.33l35.63-5.74v37.07h42.81v29.65h-42.81v44.24c0,7.5,1.31,13.47,3.95,17.94,2.63,4.46,7.93,6.7,15.9,6.7,3.83,0,7.77-.36,11.84-1.08,4.07-.72,7.77-1.71,11.12-2.99l5.02,27.74c-4.3,1.76-9.09,3.27-14.35,4.54-5.26,1.27-11.72,1.91-19.37,1.91-9.73,0-17.78-1.32-24.15-3.95-6.38-2.63-11.48-6.3-15.31-11-3.83-4.7-6.5-10.4-8.01-17.1-1.52-6.7-2.27-14.11-2.27-22.24v-105.7Z"/><path d="M714.54,272.57c-2.88,3.19-6.75,7.5-11.62,12.91-4.87,5.42-10.11,11.4-15.7,17.94-5.59,6.54-11.22,13.39-16.9,20.57-5.67,7.17-10.82,14.11-15.45,20.81h60.86v29.65h-104.03v-21.04c3.35-5.74,7.37-11.92,12.08-18.53,4.7-6.61,9.64-13.27,14.83-19.97,5.18-6.7,10.32-13.19,15.42-19.49,5.1-6.3,9.8-11.99,14.11-17.1h-53.57v-29.65h99.96v23.91Z"/></g></g><g id="Group_46"><g id="Group_45"><g id="Path_8"><path d="M223.06,64.74c1.78-7.08,6.59-13.02,13.15-16.23,26.08-14.83,51.98-29.96,78.01-44.89,15.29-8.77,31.87-.91,34.83,16.53.12,2.24-.23,4.48-1.03,6.57-2.23,8.02-4.69,15.98-6.89,24.01-1.04,3.8-2.56,6.26-7.17,6.54-4.7.32-8.64,3.67-9.7,8.26-1.89,4.58-.44,9.86,3.53,12.83,4.17,2.87,3.65,6.07,2.49,9.94-2.65,8.84-5.17,17.72-7.76,26.57-3.35,10.34-.57,21.69,7.18,29.32,2.65,2.83,3.93,4.8-.42,7.1-11.57,6.09-22.28,13.72-34.35,18.93h-8.14c-4.19-2.16-8.63-4.06-11.13-8.39-17.62-30.51-36.08-60.54-52.6-91.67v-5.41ZM313.31,131.43c-.55-6.55-5.83-11.71-12.4-12.09-6.82.03-12.32,5.58-12.29,12.4.03,6.82,5.58,12.32,12.4,12.29,6.82-.03,12.32-5.58,12.29-12.4,0-.07,0-.14,0-.2M316.67,49.72c6.71.35,12.44-4.81,12.79-11.53,0-.13.01-.26.01-.38-.08-6.6-5.41-11.92-12.01-12-6.58-.38-12.23,4.65-12.61,11.23-.01.23-.02.46-.02.7-.12,6.51,5.07,11.88,11.57,12,.09,0,.17,0,.26,0M275.72,68.66c.47-6.12-4.11-11.47-10.23-11.95-.51-.04-1.01-.04-1.52-.01-6.16-.6-11.63,3.91-12.23,10.06-.07.69-.07,1.38,0,2.07-.17,6.34,4.83,11.63,11.17,11.8.29,0,.59,0,.88,0,6.46.13,11.8-4.99,11.93-11.45,0-.17,0-.34,0-.51M282.48,111.95c6.32.37,11.74-4.45,12.11-10.77.02-.31.02-.62.02-.93.23-6.54-4.88-12.02-11.42-12.25-.33-.01-.67,0-1,0-6.16-.26-11.37,4.51-11.63,10.67-.02.48-.01.97.03,1.45-.4,6.13,4.24,11.42,10.37,11.82.51.03,1.02.03,1.53,0"/></g><g id="Path_9"><path d="M490.52,57.81c-.31,1.35-.76,4.01-1.5,6.59-8.42,29.2-16.87,58.39-25.34,87.57-4.47,15.35-12.72,20.02-28.04,15.65-29.29-8.35-58.56-16.81-87.79-25.38-13.19-3.85-18.33-12.74-14.63-25.75,8.49-29.88,17.13-59.72,25.92-89.51,4.03-13.66,12.75-18.47,26.31-14.63,29.96,8.49,59.88,17.11,89.77,25.86,9.16,2,15.59,10.24,15.32,19.61M444.91,127.18c-.29-6.83-6-12.16-12.83-11.98-6.58.13-11.86,5.49-11.89,12.08.04,6.83,5.49,12.39,12.32,12.57,6.77-.42,12.12-5.89,12.41-12.67M449.32,58.02c-6.62-.35-12.26,4.73-12.61,11.35-.35,6.62,4.73,12.26,11.35,12.61.29.02.58.02.86.01,6.6.27,12.16-4.87,12.43-11.47,0-.24.01-.48,0-.71.11-6.41-4.99-11.69-11.4-11.8-.21,0-.43,0-.64,0M373.54,122.49c6.56,0,11.87-5.32,11.87-11.88,0-.06,0-.11,0-.17.08-6.79-5.35-12.36-12.14-12.44-.09,0-.18,0-.27,0-6.6.29-11.83,5.67-11.96,12.27-.11,6.65,5.19,12.13,11.84,12.24.22,0,.45,0,.67,0M389.91,64.74c6.15.46,11.51-4.15,11.98-10.3.04-.47.04-.94.02-1.42.14-6.63-5.11-12.11-11.74-12.26-6.63-.14-12.11,5.11-12.26,11.74,0,.18,0,.37,0,.55-.31,6.16,4.43,11.4,10.59,11.71.47.02.94.02,1.41-.02"/></g></g></g><g id="Analytics" isolation="isolate"><g isolation="isolate"><path d="M116.29,522.34c-.49-1.52-1.01-3.07-1.57-4.67s-1.12-3.19-1.67-4.77h-17.03c-.55,1.59-1.1,3.18-1.66,4.78-.55,1.6-1.07,3.15-1.55,4.66h-10.19c1.64-4.7,3.2-9.04,4.67-13.03,1.47-3.99,2.91-7.74,4.32-11.26,1.41-3.52,2.8-6.87,4.17-10.04,1.37-3.17,2.79-6.26,4.26-9.28h9.31c1.43,3.02,2.84,6.12,4.24,9.28,1.39,3.17,2.79,6.51,4.2,10.04,1.41,3.52,2.86,7.28,4.33,11.26,1.48,3.99,3.03,8.33,4.68,13.03h-10.51ZM104.5,488.6c-.22.63-.54,1.5-.96,2.58-.42,1.09-.9,2.35-1.44,3.78-.54,1.43-1.14,3-1.81,4.72s-1.34,3.52-2.03,5.4h12.47c-.67-1.89-1.31-3.7-1.94-5.42-.62-1.72-1.22-3.3-1.78-4.73-.56-1.43-1.06-2.69-1.48-3.78-.42-1.09-.77-1.94-1.03-2.56Z"/><path d="M186.85,522.34c-2.81-4.99-5.85-9.92-9.12-14.79-3.27-4.87-6.76-9.46-10.45-13.78v28.57h-9.69v-43.61h7.99c1.38,1.38,2.92,3.08,4.59,5.1,1.68,2.01,3.39,4.17,5.13,6.45,1.74,2.29,3.47,4.66,5.19,7.11,1.72,2.45,3.33,4.81,4.85,7.08v-25.74h9.75v43.61h-8.24Z"/><path d="M259.59,522.34c-.49-1.52-1.01-3.07-1.57-4.67s-1.12-3.19-1.67-4.77h-17.03c-.55,1.59-1.1,3.18-1.66,4.78-.55,1.6-1.07,3.15-1.55,4.66h-10.19c1.64-4.7,3.2-9.04,4.67-13.03,1.47-3.99,2.91-7.74,4.32-11.26,1.41-3.52,2.8-6.87,4.17-10.04,1.37-3.17,2.79-6.26,4.26-9.28h9.31c1.43,3.02,2.84,6.12,4.24,9.28,1.39,3.17,2.79,6.51,4.2,10.04,1.41,3.52,2.86,7.28,4.33,11.26,1.48,3.99,3.03,8.33,4.68,13.03h-10.51ZM247.79,488.6c-.22.63-.54,1.5-.96,2.58-.42,1.09-.9,2.35-1.44,3.78-.54,1.43-1.14,3-1.81,4.72s-1.34,3.52-2.03,5.4h12.47c-.67-1.89-1.31-3.7-1.94-5.42-.62-1.72-1.22-3.3-1.78-4.73-.56-1.43-1.06-2.69-1.48-3.78-.42-1.09-.77-1.94-1.03-2.56Z"/><path d="M330.01,513.9v8.43h-29.14v-43.61h9.82v35.18h19.32Z"/><path d="M371.16,496.61c1.76-2.97,3.44-5.94,5.04-8.91,1.6-2.97,3.07-5.96,4.41-8.98h10.82c-2.39,4.7-4.87,9.25-7.43,13.66-2.56,4.41-5.27,8.83-8.12,13.28v16.68h-9.82v-16.55c-2.85-4.45-5.57-8.89-8.15-13.34-2.58-4.45-5.07-9.02-7.46-13.72h11.39c1.34,3.01,2.79,6,4.34,8.98,1.55,2.97,3.21,5.94,4.97,8.91Z"/><path d="M456.44,478.72v8.37h-13.15v35.24h-9.82v-35.24h-13.15v-8.37h36.12Z"/><path d="M487.91,478.72h9.82v43.61h-9.82v-43.61Z"/><path d="M552.85,523.22c-7.09,0-12.49-1.97-16.21-5.92-3.71-3.94-5.57-9.54-5.57-16.8,0-3.61.57-6.83,1.7-9.66s2.68-5.22,4.66-7.17c1.97-1.95,4.32-3.43,7.05-4.44,2.73-1.01,5.68-1.51,8.87-1.51,1.85,0,3.52.14,5.03.41,1.51.27,2.83.59,3.96.94,1.13.36,2.08.72,2.83,1.1.76.38,1.3.67,1.64.88l-2.83,7.93c-1.34-.71-2.91-1.32-4.69-1.83-1.78-.5-3.81-.75-6.07-.75-1.51,0-2.99.25-4.44.75-1.45.5-2.73,1.31-3.84,2.42-1.11,1.11-2,2.55-2.67,4.31-.67,1.76-1.01,3.9-1.01,6.42,0,2.01.22,3.89.66,5.63.44,1.74,1.15,3.24,2.14,4.5.99,1.26,2.28,2.26,3.87,2.99,1.59.74,3.52,1.1,5.79,1.1,1.43,0,2.71-.08,3.84-.25,1.13-.17,2.14-.37,3.02-.6.88-.23,1.66-.49,2.33-.79.67-.29,1.28-.57,1.82-.82l2.71,7.87c-1.38.84-3.34,1.59-5.85,2.27s-5.43,1.01-8.75,1.01Z"/><path d="M611.88,514.85c1.38,0,2.53-.11,3.43-.35.9-.23,1.63-.54,2.17-.94.54-.4.92-.87,1.13-1.42.21-.54.31-1.15.31-1.82,0-1.43-.67-2.61-2.01-3.56-1.34-.94-3.65-1.96-6.92-3.05-1.43-.5-2.85-1.08-4.28-1.73-1.43-.65-2.71-1.47-3.84-2.45-1.13-.99-2.06-2.18-2.77-3.59-.71-1.41-1.07-3.12-1.07-5.13s.38-3.83,1.13-5.44c.76-1.61,1.83-2.99,3.21-4.12,1.38-1.13,3.06-2,5.03-2.61,1.97-.61,4.19-.91,6.67-.91,2.94,0,5.48.31,7.61.94,2.14.63,3.9,1.32,5.29,2.08l-2.83,7.74c-1.22-.63-2.57-1.18-4.06-1.67-1.49-.48-3.28-.72-5.38-.72-2.35,0-4.04.33-5.07.98-1.03.65-1.54,1.65-1.54,2.99,0,.8.19,1.47.57,2.01.38.55.91,1.04,1.6,1.48.69.44,1.49.84,2.39,1.2.9.36,1.9.72,2.99,1.1,2.27.84,4.24,1.67,5.92,2.49,1.68.82,3.07,1.77,4.19,2.86,1.11,1.09,1.94,2.37,2.49,3.84.54,1.47.82,3.25.82,5.35,0,4.07-1.43,7.23-4.28,9.47-2.85,2.24-7.15,3.37-12.9,3.37-1.93,0-3.67-.12-5.22-.35-1.55-.23-2.93-.51-4.12-.85-1.2-.34-2.22-.69-3.08-1.07-.86-.38-1.58-.73-2.17-1.07l2.77-7.8c1.3.71,2.9,1.35,4.81,1.92,1.91.57,4.25.85,7.02.85Z"/></g></g></svg>