<?xml version="1.0" encoding="UTF-8"?><svg id="Layer_1" xmlns="http://www.w3.org/2000/svg" viewBox="0 0 267.48 170.2"><g id="Group_46"><g id="Group_45"><g id="Path_8"><path d="M0,64.74c1.78-7.08,6.59-13.02,13.15-16.23,26.08-14.83,51.98-29.96,78.01-44.89,15.29-8.77,31.87-.91,34.83,16.53.12,2.24-.23,4.48-1.03,6.57-2.23,8.02-4.69,15.98-6.89,24.01-1.04,3.8-2.56,6.26-7.17,6.54-4.7.32-8.64,3.67-9.7,8.26-1.89,4.58-.44,9.86,3.53,12.83,4.17,2.87,3.65,6.07,2.49,9.94-2.65,8.84-5.17,17.72-7.76,26.57-3.35,10.34-.57,21.69,7.18,29.32,2.65,2.83,3.93,4.8-.42,7.1-11.57,6.09-22.28,13.72-34.35,18.93h-8.14c-4.19-2.16-8.63-4.06-11.13-8.39C34.98,131.31,16.53,101.28,0,70.15v-5.41ZM90.25,131.43c-.55-6.55-5.83-11.71-12.4-12.09-6.82.03-12.32,5.58-12.29,12.4.03,6.82,5.58,12.32,12.4,12.29,6.82-.03,12.32-5.58,12.29-12.4,0-.07,0-.14,0-.2M93.61,49.72c6.71.35,12.44-4.81,12.79-11.53,0-.13.01-.26.01-.38-.08-6.6-5.41-11.92-12.01-12-6.58-.38-12.23,4.65-12.61,11.23-.01.23-.02.46-.02.7-.12,6.51,5.07,11.88,11.57,12,.09,0,.17,0,.26,0M52.66,68.66c.47-6.12-4.11-11.47-10.23-11.95-.51-.04-1.01-.04-1.52-.01-6.16-.6-11.63,3.91-12.23,10.06-.07.69-.07,1.38,0,2.07-.17,6.34,4.83,11.63,11.17,11.8.29,0,.59,0,.88,0,6.46.13,11.8-4.99,11.93-11.45,0-.17,0-.34,0-.51M59.42,111.95c6.32.37,11.74-4.45,12.11-10.77.02-.31.02-.62.02-.93.23-6.54-4.88-12.02-11.42-12.25-.33-.01-.67,0-1,0-6.16-.26-11.37,4.51-11.63,10.67-.02.48-.01.97.03,1.45-.4,6.13,4.24,11.42,10.37,11.82.51.03,1.02.03,1.53,0" fill="#2a60a9"/></g><g id="Path_9"><path d="M267.46,57.81c-.31,1.35-.76,4.01-1.5,6.59-8.42,29.2-16.87,58.39-25.34,87.57-4.47,15.35-12.72,20.02-28.04,15.65-29.29-8.35-58.56-16.81-87.79-25.38-13.19-3.85-18.33-12.74-14.63-25.75,8.49-29.88,17.13-59.72,25.92-89.51,4.03-13.66,12.75-18.47,26.31-14.63,29.96,8.49,59.88,17.11,89.77,25.86,9.16,2,15.59,10.24,15.32,19.61M221.85,127.18c-.29-6.83-6-12.16-12.83-11.98-6.58.13-11.86,5.49-11.89,12.08.04,6.83,5.49,12.39,12.32,12.57,6.77-.42,12.12-5.89,12.41-12.67M226.26,58.02c-6.62-.35-12.26,4.73-12.61,11.35-.35,6.62,4.73,12.26,11.35,12.61.29.02.58.02.86.01,6.6.27,12.16-4.87,12.43-11.47,0-.24.01-.48,0-.71.11-6.41-4.99-11.69-11.4-11.8-.21,0-.43,0-.64,0M150.48,122.49c6.56,0,11.87-5.32,11.87-11.88,0-.06,0-.11,0-.17.08-6.79-5.35-12.36-12.14-12.44-.09,0-.18,0-.27,0-6.6.29-11.83,5.67-11.96,12.27-.11,6.65,5.19,12.13,11.84,12.24.22,0,.45,0,.67,0M166.85,64.74c6.15.46,11.51-4.15,11.98-10.3.04-.47.04-.94.02-1.42.14-6.63-5.11-12.11-11.74-12.26s-12.11,5.11-12.26,11.74c0,.18,0,.37,0,.55-.31,6.16,4.43,11.4,10.59,11.71.47.02.94.02,1.41-.02" fill="#2a60a9"/></g></g></g></svg>